<svg xmlns="http://www.w3.org/2000/svg" viewBox="0 0 249.3 243.2" xml:space="preserve" style="fill:#000" aria-label="Pink Yellow Gradient Three Geo Cluster Blob"><linearGradient gradientUnits="userSpaceOnUse" id="a" x1="145.8" x2="81.708" y1="194.27" y2="83.265"><stop offset=".207" style="stop-color:#f80040"/><stop offset="1" style="stop-color:#150941"/></linearGradient><path d="M29.5 164.4c20.9-.4 60.3 49.4 113.9 29.3s86.2-75.2 56.1-111.3-36 38.4-85.4 43.5-60.3-15.1-90.4-7.5-33.5 46.9 5.8 46zM94.5 209h-5.7v-5.7c0-.4-.3-.7-.7-.7s-.7.3-.7.7v5.7h-5.7c-.4 0-.7.3-.7.7s.3.7.7.7h5.7v5.7c0 .4.3.7.7.7s.7-.3.7-.7v-5.7h5.7c.4 0 .7-.3.7-.7s-.3-.7-.7-.7z" style="fill:url(#a)"/><linearGradient gradientUnits="userSpaceOnUse" id="b" x1="0" x2="220.37" y1="79.966" y2="79.966"><stop offset=".03" style="stop-color:#f80040"/><stop offset="1" style="stop-color:#150941"/></linearGradient><path d="M.4 56.6 13 124.2c-2.9-6.8-5.5-14.6-7.8-23.4C1.9 88-1 72 .4 56.6zm21 83.1c2 2.9 4.2 5.5 6.5 7.8L6.6 33.4C5.2 36.2 4 39.1 3.1 42l18.3 97.7zm13 13.2c1.8 1.2 3.7 2.3 5.6 3.2L14.9 21.3c-1.5 1.6-2.9 3.3-4.1 5.1l23.6 126.5zm11.5 5.4c1.7.5 3.5.8 5.3 1.1L24 13.5c-1.6 1.1-3 2.2-4.4 3.4l26.3 141.4zm10.9 1.6c1.6.1 3.3 0 5-.1L33.5 8c-1.6.8-3.1 1.5-4.6 2.4l27.9 149.5zm10.4-.6c1.6-.2 3.2-.5 4.9-.8L43.3 4.2c-1.6.5-3.2 1.1-4.7 1.7l28.6 153.4zm10.2-2.1c.3-.1.5-.1.8-.2 1.4-.4 2.7-.9 4-1.4L53.4 1.6c-1.7.3-3.3.7-4.8 1.1l28.8 154.5zm9.7-4.4c1.5-1.1 3-2.3 4.4-3.6L63.7.1c-1.6.1-3.2.3-5 .5l28.4 152.2zM96 144c1.4-1.8 2.7-3.8 4-5.9L74.3.5C72.7.3 71 .1 69.1 0L96 144zm8.1-13.4c1.2-2.5 2.4-5 3.6-7.6L85.5 4.1C83.7 3.3 81.9 2.6 80 2l24.1 128.6zm7.5-16.3c1.2-2.6 2.4-5.2 3.6-7.7L97.2 10c-1.9-1-3.8-2-5.6-3l20 107.3zm7.6-15.4c1.2-2.2 2.5-4.3 3.9-6.2l-14.5-77.6c-1.9-.7-3.7-1.4-5.5-2.1l16.1 85.9zm8.4-12c1.3-1.5 2.8-2.9 4.3-4.2L119.8 18c-1.9-.3-3.6-.7-5.3-1.2l13.1 70.1zm9.1-7.8c1.5-.9 3-1.7 4.6-2.4l-10.7-57.4c-1.8-.1-3.5-.3-5.1-.5l11.2 60.3zm9.7-4.1c1.6-.4 3.2-.7 4.9-.9l-10.2-54.5H136L146.4 75zm10.4-1.2c1.6 0 3.3.1 5.1.3l-10.3-55c-1.7.1-3.4.3-5 .3l10.2 54.4zm10.7 1.1c.7.1 1.3.2 2 .4 1.1.2 2.2.5 3.3.6l-10.8-58c-1.7.2-3.3.4-4.9.6l10.4 56.4zm10.9 1.7c1.7.1 3.4.2 5.1.2l-11.2-60.2c-1.6.2-3.2.4-4.9.6l11 59.4zm10.5-.1c1.7-.2 3.3-.5 4.9-.8l-11.1-59.5h-5l11.2 60.3zm10.1-2.4c1.6-.6 3.2-1.3 4.7-2.1l-10.2-54.6c-1.7-.3-3.4-.6-5.2-.8L199 74.1zm9.6-5.3c1.6-1.2 3-2.6 4.3-4l-8.1-43.6c-1.7-.9-3.5-1.6-5.5-2.3l9.3 49.9zm2.4-43.5 6.2 33.3c1.7-3.2 2.8-6.7 3.2-10.2l-2.8-15c-1.6-3-3.8-5.7-6.6-8.1z" style="fill:url(#b)"/><linearGradient gradientTransform="rotate(34.373 2817.806 275.06)" gradientUnits="userSpaceOnUse" id="c" x1="557.55" x2="557.55" y1="1782" y2="1522.5"><stop offset=".03" style="stop-color:#f80040"/><stop offset="1" style="stop-color:#150941"/></linearGradient><path d="M101.5 242.7c-1.3-.9-1.7-2.7-.8-4.1L244 29.2c.9-1.3 2.7-1.7 4.1-.8 1.3.9 1.7 2.7.8 4.1L105.6 241.9c-.9 1.4-2.8 1.7-4.1.8z" style="fill:url(#c)"/><linearGradient gradientUnits="userSpaceOnUse" id="d" x1="74.683" x2="186.86" y1="47.171" y2="159.35"><stop offset=".207" style="stop-color:#f80040"/><stop offset="1" style="stop-color:#150941"/></linearGradient><path d="M151.8 122.6c15.9-10.5 38.5 25.7 62 9.5s16.9-96-77-100.7c-82-4.1-99.6 66-88.8 100.7 8.4 27 39 44.4 67.9 38.2 35-7.5 27.4-42.2 35.9-47.7z" style="fill:url(#d)"/></svg>