<svg xmlns="http://www.w3.org/2000/svg" viewBox="0 0 271.3 176.4" xml:space="preserve" style="fill:#000" aria-label="Pink Yellow Gradient Geo Striped Cluster Blob"><linearGradient gradientTransform="rotate(35.343 184.172 1392.424)" gradientUnits="userSpaceOnUse" id="a" x1="-560.8" x2="-624.89" y1="379.26" y2="268.25"><stop offset=".207" style="stop-color:#150941"/><stop offset="1" style="stop-color:#f80040"/></linearGradient><path d="M85 43.4c17.3 11.8 20.6 75.2 75.9 89.8S274.8 121.7 271 74.9 219.4 85.4 176.2 61s-40.4-47.2-69.4-58.5S52.5 21.3 85 43.4z" style="fill:url(#a)"/><linearGradient gradientUnits="userSpaceOnUse" id="b" x1="71.21" x2="150.67" y1="194.58" y2="56.959"><stop offset=".207" style="stop-color:#150941"/><stop offset="1" style="stop-color:#f80040"/></linearGradient><path d="M31 46 2.1 108.5c1.6-7.3 4-15.1 7.2-23.6C14.1 72.5 20.9 57.8 31 46zM0 126c0 3.6.2 6.9.8 10.2L49.5 30.7c-2.8 1.5-5.4 3.2-7.8 5.1L0 126zm3 18.3c.8 2 1.7 4 2.8 5.8L63.2 25.7c-2.2.5-4.3 1-6.3 1.8L3 144.3zm6.3 11c1.1 1.4 2.3 2.7 3.6 4L75.2 24.5c-1.9 0-3.8.1-5.6.2L9.3 155.3zm7.9 7.6c1.3 1 2.7 2 4.1 2.9L86.1 25.6c-1.7-.3-3.5-.6-5.1-.7l-63.8 138zm8.9 5.6c1.4.7 2.9 1.5 4.5 2.1L96.3 28.2c-1.6-.5-3.2-1-4.8-1.4L26.1 168.5zm9.5 4.2c.3.1.5.2.7.3 1.4.5 2.7.9 4.1 1.1L106 31.9c-1.6-.7-3.1-1.3-4.6-1.9L35.6 172.7zm10.5 2c1.9 0 3.8-.1 5.7-.4l63.6-137.7c-1.3-.8-2.8-1.6-4.4-2.4L46.1 174.7zm12.3-2c2.2-.7 4.4-1.6 6.6-2.5l58.7-127.1c-1.2-1.2-2.5-2.3-3.9-3.4l-61.4 133zm14.3-6.3c2.4-1.3 4.9-2.7 7.4-4.1l50.7-109.8c-1-1.7-2-3.3-3.2-4.9L72.7 166.4zm15.6-8.9c2.5-1.4 4.9-2.9 7.4-4.2l41.2-89.2c-1-1.9-1.9-3.8-2.9-5.7l-45.7 99.1zm15.2-8.2c2.3-1.1 4.5-2 6.8-2.8l33.1-71.6c-1.2-1.7-2.2-3.3-3.2-4.9l-36.7 79.3zm13.7-4.9c2-.5 3.9-.8 5.9-1l27.6-59.8c-1.3-1.4-2.5-2.7-3.6-4l-29.9 64.8zm11.9-1.1c1.7.1 3.4.3 5.1.7l24.5-53c-1.4-1.1-2.7-2.3-3.9-3.4l-25.7 55.7zm10.4 2.2c1.5.6 3 1.3 4.5 2.1l23.2-50.3c-1.4-1-2.8-2-4.1-2.9l-23.6 51.1zm9.1 5c1.3 1 2.7 2 4 3.2l23.5-50.8c-1.5-.9-2.9-1.7-4.3-2.6l-23.2 50.2zm8.1 7.2c.5.5.9 1 1.4 1.5.8.8 1.5 1.6 2.3 2.4l24.7-53.6c-1.5-.8-3-1.6-4.4-2.4l-24 52.1zm7.9 7.7c1.3 1.1 2.7 2.2 4 3.1l25.7-55.6c-1.4-.8-2.9-1.6-4.4-2.4l-25.3 54.9zm8.7 5.9c1.5.8 3 1.5 4.5 2.1l25.4-54.9c-1.3-1-2.7-1.9-4.1-2.9l-25.8 55.7zm9.6 3.9c1.7.4 3.4.8 5 1l23.3-50.5c-1.2-1.2-2.4-2.5-3.8-3.7l-24.5 53.2zm10.8 1.2c2-.1 4-.4 5.8-.8l18.6-40.3c-.9-1.7-1.9-3.4-3.1-5l-21.3 46.1zm27.2-34-14.2 30.7c3.3-1.7 6.1-3.9 8.5-6.5l6.4-13.9c.4-3.2.2-6.7-.7-10.3z" style="fill:url(#b)"/><path d="M181.5 52.9c-11.1-6.8-14.6-21.3-7.8-32.4s5.4 1.3 16.5 8.1S220.8 34 214 45.2s-21.3 14.5-32.5 7.7z" style="fill:url(#a)"/></svg>