<?xml version="1.0" encoding="UTF-8"?>
<!DOCTYPE svg PUBLIC "-//W3C//DTD SVG 1.1//EN" "http://www.w3.org/Graphics/SVG/1.1/DTD/svg11.dtd">
<svg version="1.1" xmlns="http://www.w3.org/2000/svg" xmlns:xlink="http://www.w3.org/1999/xlink" x="0" y="0" width="40" height="40" viewBox="-10, -10, 40, 40">
  <g id="icon-link">
      <path d="M3.608,20.494 C2.92,20.494 2.398,20.315 2.041,19.96 C1.685,19.603 1.506,19.077 1.506,18.38 L1.506,3.633 C1.506,2.928 1.685,2.397 2.041,2.041 C2.398,1.685 2.92,1.507 3.608,1.507 L18.392,1.507 C19.056,1.507 19.573,1.685 19.941,2.041 C20.309,2.397 20.494,2.928 20.494,3.633 L20.494,18.38 C20.494,19.077 20.309,19.603 19.941,19.96 C19.573,20.315 19.056,20.494 18.392,20.494 z M3.584,22 L18.417,22 C19.599,22 20.492,21.703 21.095,21.107 C21.699,20.513 22.001,19.627 22.001,18.453 L22.001,3.559 C22.001,2.385 21.699,1.498 21.095,0.899 C20.492,0.3 19.599,-0 18.417,-0 L3.584,-0 C2.393,-0 1.499,0.298 0.899,0.893 C0.3,1.488 -0,2.377 -0,3.559 L-0,18.453 C-0,19.627 0.3,20.513 0.899,21.107 C1.499,21.703 2.393,22 3.584,22 M14.955,13.922 C15.165,13.922 15.333,13.853 15.459,13.715 C15.584,13.577 15.647,13.395 15.647,13.169 L15.647,7.119 C15.647,6.844 15.576,6.645 15.434,6.524 C15.293,6.402 15.108,6.342 14.881,6.342 L8.783,6.342 C8.565,6.342 8.39,6.404 8.261,6.53 C8.131,6.655 8.066,6.823 8.066,7.034 C8.066,7.236 8.133,7.402 8.267,7.532 C8.4,7.661 8.581,7.726 8.808,7.726 L11.735,7.726 L13.484,7.593 L11.844,9.148 L6.597,14.395 C6.442,14.55 6.366,14.72 6.366,14.906 C6.366,15.124 6.428,15.297 6.554,15.422 C6.68,15.548 6.848,15.61 7.058,15.61 C7.18,15.61 7.285,15.59 7.374,15.55 C7.463,15.509 7.54,15.456 7.605,15.392 L12.853,10.144 L14.383,8.516 L14.262,10.52 L14.262,13.181 C14.262,13.416 14.327,13.598 14.457,13.727 C14.586,13.857 14.752,13.922 14.955,13.922" fill="#000000"/>
    </g>
  </g>
</svg>
