<?xml version="1.0" encoding="UTF-8"?>
<!DOCTYPE svg PUBLIC "-//W3C//DTD SVG 1.1//EN" "http://www.w3.org/Graphics/SVG/1.1/DTD/svg11.dtd">
<svg version="1.1" xmlns="http://www.w3.org/2000/svg" xmlns:xlink="http://www.w3.org/1999/xlink" x="0" y="0" width="40" height="40" viewBox="12, 12, 20, 20">
  <g id="icon-chevron">
    <path d="M26.588,32.395 C27.373,32.395 27.983,31.786 27.983,31.012 C27.983,30.625 27.83,30.274 27.561,30.004 L19.358,21.989 L27.561,13.997 C27.83,13.727 27.983,13.364 27.983,12.989 C27.983,12.215 27.373,11.606 26.588,11.606 C26.213,11.606 25.885,11.747 25.627,12.004 L16.51,20.911 C16.182,21.215 16.018,21.59 16.018,22 C16.018,22.411 16.182,22.762 16.498,23.079 L25.615,31.997 C25.885,32.254 26.213,32.395 26.588,32.395" fill="#000000"/>
  </g>
</svg>
