<?xml version="1.0" encoding="UTF-8"?>
<!DOCTYPE svg PUBLIC "-//W3C//DTD SVG 1.1//EN" "http://www.w3.org/Graphics/SVG/1.1/DTD/svg11.dtd">
<svg version="1.1" xmlns="http://www.w3.org/2000/svg" xmlns:xlink="http://www.w3.org/1999/xlink" x="0" y="0" width="40" height="40" viewBox="0, 0, 40, 40">
  <g id="icon-checkmark">
    <g>
      <path d="M17.428,29.95 C17.947,29.95 18.365,29.711 18.684,29.232 L29.033,13.081 C29.126,12.921 29.209,12.759 29.282,12.592 C29.356,12.426 29.392,12.257 29.392,12.084 C29.392,11.724 29.259,11.439 28.993,11.226 C28.728,11.013 28.435,10.907 28.116,10.907 C27.677,10.907 27.312,11.139 27.019,11.605 L17.368,26.84 L12.163,20.419 C11.978,20.206 11.791,20.05 11.606,19.95 C11.419,19.85 11.22,19.801 11.007,19.801 C10.675,19.801 10.386,19.92 10.14,20.159 C9.894,20.398 9.771,20.698 9.771,21.056 C9.771,21.402 9.898,21.734 10.15,22.054 L16.112,29.232 C16.324,29.498 16.534,29.684 16.741,29.791 C16.947,29.897 17.175,29.95 17.428,29.95" fill="#000000"/>
    </g>
  </g>
</svg>
