<?xml version="1.0" encoding="UTF-8"?>
<!DOCTYPE svg PUBLIC "-//W3C//DTD SVG 1.1//EN" "http://www.w3.org/Graphics/SVG/1.1/DTD/svg11.dtd">
<svg version="1.1" xmlns="http://www.w3.org/2000/svg" xmlns:xlink="http://www.w3.org/1999/xlink" x="0" y="0" width="28" height="28" viewBox="0, 0, 28, 28">
  <g id="Layer_1">
    <path d="M19.695,8.75 C19.695,5.604 17.145,3.055 14,3.055 C10.855,3.057 8.307,5.605 8.304,8.75 C8.304,11.896 10.854,14.445 14,14.445 C17.145,14.445 19.695,11.896 19.695,8.75 M20.75,8.75 C20.75,12.478 17.727,15.5 14,15.5 C10.274,15.495 7.254,12.476 7.25,8.75 C7.25,5.022 10.272,2 14,2 C17.727,2 20.75,5.022 20.75,8.75 M24.415,26 C24.091,26 23.83,25.751 23.83,25.445 C23.83,21.125 19.42,17.609 14,17.609 C8.579,17.609 4.169,21.125 4.169,25.445 C4.169,25.751 3.907,26 3.585,26 C3.262,26 3,25.751 3,25.445 C3,20.513 7.934,16.5 14,16.5 C20.065,16.5 25,20.513 25,25.445 C25,25.751 24.738,26 24.415,26" fill="#000000"/>
  </g>
</svg>
